<svg width="47" height="50" viewBox="0 0 47 50" fill="none" xmlns="http://www.w3.org/2000/svg">
<path d="M33.0528 4.09106H13.9472C8.67124 4.09106 4.39429 8.66978 4.39429 14.3179V34.7716C4.39429 40.4198 8.67124 44.9984 13.9472 44.9984H33.0528C38.3287 44.9984 42.6057 40.4198 42.6057 34.7716V14.3179C42.6057 8.66978 38.3287 4.09106 33.0528 4.09106Z" stroke="#20EEFC" stroke-width="4" stroke-linecap="round" stroke-linejoin="round"/>
<path d="M31.1423 23.2558C31.3781 24.9581 31.1064 26.6966 30.3661 28.2241C29.6258 29.7515 28.4543 30.9902 27.0185 31.7639C25.5826 32.5375 23.9555 32.8069 22.3685 32.5335C20.7814 32.2601 19.3153 31.4579 18.1787 30.241C17.042 29.0242 16.2928 27.4547 16.0374 25.7557C15.782 24.0567 16.0336 22.3148 16.7563 20.7776C17.4789 19.2405 18.636 17.9864 20.0628 17.1938C21.4896 16.4013 23.1135 16.1105 24.7036 16.3629C26.3256 16.6205 27.8272 17.4296 28.9866 18.6708C30.146 19.912 30.9018 21.5194 31.1423 23.2558Z" stroke="#20EEFC" stroke-width="4" stroke-linecap="round" stroke-linejoin="round"/>
<path d="M34.0082 13.2952H34.0272" stroke="#20EEFC" stroke-width="4" stroke-linecap="round" stroke-linejoin="round"/>
</svg>
