<svg width="47" height="47" viewBox="0 0 47 47" fill="none" xmlns="http://www.w3.org/2000/svg">
<g clip-path="url(#clip0_15_106)">
<mask id="mask0_15_106" style="mask-type:luminance" maskUnits="userSpaceOnUse" x="0" y="0" width="47" height="47">
<path d="M47 0H0V47H47V0Z" fill="white"/>
</mask>
<g mask="url(#mask0_15_106)">
<path d="M45.0417 5.87516C43.1664 7.19796 41.09 8.20971 38.8925 8.87141C37.7131 7.51528 36.1456 6.5541 34.4022 6.11784C32.6587 5.6816 30.8232 5.79134 29.1442 6.43222C27.465 7.0731 26.0232 8.2142 25.0138 9.70118C24.0044 11.1882 23.476 12.9493 23.5 14.7465V16.7047C20.0586 16.794 16.6484 16.0307 13.5733 14.4829C10.4982 12.9351 7.85358 10.6508 5.87505 7.83349C5.87505 7.83349 -1.95829 25.4585 15.6667 33.2918C11.6336 36.0295 6.82907 37.4022 1.95837 37.2085C19.5834 47.0002 41.125 37.2085 41.125 14.6877C41.1233 14.1422 41.0708 13.598 40.9684 13.0622C42.9671 11.0912 44.3774 8.60256 45.0417 5.87516Z" stroke="#20EEFC" stroke-width="4" stroke-linecap="round" stroke-linejoin="round"/>
</g>
</g>
<defs>
<clipPath id="clip0_15_106">
<rect width="47" height="47" fill="white"/>
</clipPath>
</defs>
</svg>
