<svg width="121" height="116" viewBox="0 0 121 116" fill="none" xmlns="http://www.w3.org/2000/svg">
<path d="M2.5 10C2.5 5.85787 5.85787 2.5 10 2.5H111C115.142 2.5 118.5 5.85786 118.5 10V106C118.5 110.142 115.142 113.5 111 113.5H10C5.85787 113.5 2.5 110.142 2.5 106V10Z" stroke="white" stroke-width="5"/>
<path d="M47.0184 70.06C47.0184 70.44 46.8784 70.77 46.5984 71.05C46.3384 71.31 46.0184 71.44 45.6384 71.44H44.8884C43.9684 71.44 43.1784 71.12 42.5184 70.48C41.8584 69.82 41.5284 69.02 41.5284 68.08V52.54C41.5284 52.14 41.6584 51.81 41.9184 51.55C42.1984 51.29 42.5284 51.16 42.9084 51.16H43.7484C44.1284 51.16 44.4484 51.29 44.7084 51.55C44.9884 51.81 45.1284 52.14 45.1284 52.54V67.51C45.1284 67.77 45.2484 67.9 45.4884 67.9H45.6384C46.0184 67.9 46.3384 68.03 46.5984 68.29C46.8784 68.55 47.0184 68.88 47.0184 69.28V70.06ZM63.9907 70.06C63.9907 70.44 63.8507 70.77 63.5707 71.05C63.3107 71.31 62.9907 71.44 62.6107 71.44H61.7707C61.3907 71.44 61.0607 71.31 60.7807 71.05C60.5207 70.77 60.3907 70.44 60.3907 70.06V59.89C60.3907 59.61 60.2607 59.47 60.0007 59.47H58.8307C58.5907 59.47 58.4707 59.61 58.4707 59.89V70.06C58.4707 70.44 58.3307 70.77 58.0507 71.05C57.7907 71.31 57.4707 71.44 57.0907 71.44H56.2807C55.9007 71.44 55.5707 71.31 55.2907 71.05C55.0307 70.77 54.9007 70.44 54.9007 70.06V59.89C54.9007 59.61 54.7807 59.47 54.5407 59.47H53.3707C53.1107 59.47 52.9807 59.61 52.9807 59.89V70.06C52.9807 70.44 52.8407 70.77 52.5607 71.05C52.3007 71.31 51.9807 71.44 51.6007 71.44H50.7607C50.3807 71.44 50.0507 71.31 49.7707 71.05C49.5107 70.77 49.3807 70.44 49.3807 70.06V59.26C49.3807 58.64 49.5307 58.08 49.8307 57.58C50.1507 57.06 50.5607 56.65 51.0607 56.35C51.5607 56.05 52.1207 55.9 52.7407 55.9H55.1107C55.5507 55.9 55.9507 55.99 56.3107 56.17C56.5507 56.23 56.8007 56.23 57.0607 56.17C57.4207 55.99 57.8207 55.9 58.2607 55.9H60.6307C61.2507 55.9 61.8107 56.05 62.3107 56.35C62.8107 56.65 63.2107 57.06 63.5107 57.58C63.8307 58.08 63.9907 58.64 63.9907 59.26V70.06ZM79.3021 51.97C79.4021 52.21 79.4321 52.47 79.3921 52.75C79.3721 53.01 79.2621 53.25 79.0621 53.47L72.1921 61.03C72.0121 61.21 72.0121 61.4 72.1921 61.6L79.0621 69.13C79.2621 69.33 79.3721 69.57 79.3921 69.85C79.4321 70.11 79.4021 70.36 79.3021 70.6C79.2021 70.86 79.0321 71.07 78.7921 71.23C78.5721 71.37 78.3321 71.44 78.0721 71.44H76.9321C76.5721 71.44 76.2421 71.29 75.9421 70.99L70.2721 64.75C70.2321 64.69 70.1721 64.68 70.0921 64.72C70.0321 64.74 70.0021 64.78 70.0021 64.84V70.06C70.0021 70.44 69.8621 70.77 69.5821 71.05C69.3221 71.31 69.0021 71.44 68.6221 71.44H67.7821C67.4021 71.44 67.0821 71.31 66.8221 71.05C66.5621 70.77 66.4321 70.44 66.4321 70.06V52.54C66.4321 52.14 66.5621 51.81 66.8221 51.55C67.0821 51.29 67.4021 51.16 67.7821 51.16H68.6221C69.0021 51.16 69.3221 51.29 69.5821 51.55C69.8621 51.81 70.0021 52.14 70.0021 52.54V57.73C70.0021 57.81 70.0321 57.86 70.0921 57.88C70.1721 57.9 70.2321 57.89 70.2721 57.85L75.9421 51.61C76.2421 51.31 76.5821 51.16 76.9621 51.16H78.0721C78.6521 51.16 79.0621 51.43 79.3021 51.97Z" fill="white"/>
</svg>
